<?xml version="1.0" encoding="UTF-8"?><svg xmlns="http://www.w3.org/2000/svg" viewBox="0 0 193.37 150.05"><defs><style>.d{fill:#fff;stroke:#231f20;stroke-miterlimit:10;stroke-width:2px;}</style></defs><g id="a"/><g id="b"><g id="c"><path class="d" d="M191.33,32.45c-2.65-3.05-7.84-8.87-13.88-11.09-1.07-.39-2-.75-3-1l-1.3-.24c-4.39-1.91-9.21-2.62-13.66-1.33-6.83,1.97-13.66,4.33-19.98,7.54-14.99,7.62-26.97,19.06-37.87,31.68-1.53,1.77-2.9,3.67-4.39,5.57,.58,.31,.74,.47,.88,.46,9.44-.67,18.92-1.05,28.32-2.15,5.02-.59,8.79,1.33,9.13,5.91,.31,4.25,.76,8.49,1.17,12.74,.27,2.66-1.16,4.12-3.73,3.86-1.11-.11-2.24-.09-3.36-.04-9.72,.5-19.43,1.22-29.15,1.47-10.8,.28-21.52,.72-31.98,3.79-1.62,.48-4.45,.88-5.03,.08-2.25-3.05-4.83-5.2-8.53-6.08-.58-.13-1.34-.85-1.44-1.4-.4-2.39-1.16-4.93-.74-7.21,1.36-7.27,3.18-14.45,4.87-21.85-1.13,.72-2.16,1.42-3.23,2.03-6.01,3.41-10.83,8.23-14.84,13.68-4.63,6.3-8.83,12.95-12.81,19.69-4.68,7.93-7.12,16.53-6.33,25.74-.49,3.08-.95,8.63,1,15.06,1.36,4.47,3.4,7.82,5,10l.31,.74c-.16-.11-.33-.22-.49-.33-4.81-3.3-9.81-6.61-13.7-10.86-4.06-4.44-7.64-9.47-9.69-15.44-3.47-10.09-1.79-19.8,2.27-29.02,3.3-7.51,7.5-14.75,12.14-21.53,4.5-6.57,10.04-12.43,15.17-18.57,.83-.99,1.91-1.78,2.88-2.67-.11-.19-.21-.37-.31-.56-2.44,.34-4.92,.5-7.3,1.07-3.99,.96-5.98,.65-8.25-2.75-2.43-3.66-5.33-7.11-5.82-11.85-.34-3.23,1.54-6.49,4.7-6.9,9.72-1.26,19.48-2.27,29.16-3.8,8.49-1.35,16.89-3.25,25.32-4.93,3.12-.62,4.64,.09,5.5,3.08,1.08,3.76,2.24,7.28,6.15,9.25,.69,.35,.9,2.49,.68,3.68-1.02,5.49-2.28,10.94-3.42,16.41-.12,.56-.02,1.17-.02,2.23,1.09-.92,1.97-1.57,2.72-2.33,2.22-2.26,4.28-4.69,6.61-6.82,6.2-5.69,12.53-11.25,18.79-16.87,1.37-1.23,3.1-2.73,4.07-3.7,7.27-3.87,14.59-7.64,22.02-11.18,3.52-1.68,7.28-2.92,11.02-4.07,1.82-.56,3.87-.72,5.79-.61,1.13,.07,3.97,.31,6.84,.57,2.95,.27,10.39,1.98,11.36,2.26,7,2,8.44,5.95,11.5,10.9,2.8,4.52,5.54,9.16,7.63,14.03,.52,1.21,.93,2.43,1.25,3.66Z"/><path class="d" d="M191.31,51.47c-2.55,16.12-11.56,28.73-22.31,40.28-5.92,6.35-11.82,12.85-18.48,18.36-7.28,6.01-15.26,11.23-23.26,16.29-5.79,3.66-11.92,6.94-18.24,9.57-7.92,3.31-16.09,6.1-24.33,8.52-6.43,1.88-13.06,3.44-19.7,4.14-13.62,1.44-26.66-.77-38.23-8.53l-.31-.74c-1.6-2.18-3.64-5.53-5-10-1.95-6.43-1.49-12.92-1-16,.04,.5,.09,1.94,.15,2.45,.13,1,.3,2,.55,2.97,.59,2.36,1.64,4.55,3.57,6.25,5.99,5.3,13.53,7,21.05,7.23,6.71,.2,13.56-.95,20.2-2.27,13.36-2.67,25.84-8,37.79-14.41,6.81-3.66,13.28-7.99,19.7-12.32,5.26-3.54,10.43-7.3,15.26-11.41,4.43-3.75,8.35-8.09,12.5-12.17,2.63-2.58,5.28-5.15,7.92-7.74,.3-.3,.57-.65,.81-1,2.31-3.39,4.63-6.77,6.89-10.19,1.38-2.07,3.01-4.06,3.95-6.32,2.29-5.55,3.93-11.27,4.99-17.25,.89-5.1,.71-9.91-.45-14.77-.21-.9-1.27-1.89-2.18-2.29l1.3,.24c1,.25,1.93,.61,3,1,6.04,2.22,11.23,8.04,13.88,11.09,1.64,6.2,.99,12.63-.02,19.02Z"/></g></g></svg>